<svg id="_x33_0" enable-background="new 0 0 64 64" height="512" viewBox="0 0 64 64" width="512" xmlns="http://www.w3.org/2000/svg"><g><path d="m10 26h6v-6h-6v-2.869l-8.803 5.869 8.803 5.869zm-2-.869-3.197-2.131 3.197-2.131v1.131h6v2h-6z"/><path d="m54 28.869 8.803-5.869-8.803-5.869v2.869h-6v6h6zm-4-4.869v-2h6v-1.131l3.197 2.131-3.197 2.131v-1.131z"/><path d="m60 32h-4.146c-1.525 0-2.896.847-3.578 2.211l-2.131 4.262-1.284-3.53c-1.304-3.586-4.438-6.278-8.18-7.027l-3.865-.773-.591-2.363c1.715-1.073 2.991-2.773 3.511-4.78h.264c2.206 0 4-1.794 4-4 0-.946-.344-1.805-.896-2.491l.721-2.687c.116-.464.175-.942.175-1.42 0-2.454-1.549-4.666-3.855-5.504l-6.579-2.392c-.922-.336-1.888-.506-2.869-.506-2.628 0-5.139 1.255-6.715 3.358l-.508.676c-1.958.258-3.474 1.939-3.474 3.966 0 1.609.566 3.587.871 4.539-.537.681-.871 1.529-.871 2.461 0 2.206 1.794 4 4 4h.263c.519 2.007 1.796 3.707 3.511 4.78l-.591 2.363-3.865.773c-3.742.749-6.876 3.441-8.18 7.027l-1.284 3.53-2.131-4.262c-.681-1.364-2.052-2.211-3.577-2.211h-4.146c-1.654 0-3 1.346-3 3s1.346 3 3 3h2.406l4.49 8.231c.931 1.708 2.718 2.769 4.663 2.769 1.854 0 3.599-.988 4.53-2.539l.697-1.048c.124 1.869.214 3.821.214 5.587 0 5.822-.971 10.755-.98 10.804l-.239 1.196h12.219 11 1.219l-.239-1.196c-.009-.049-.98-4.982-.98-10.804 0-1.767.09-3.719.215-5.589l.672 1.011c.955 1.59 2.7 2.578 4.554 2.578 1.945 0 3.732-1.061 4.663-2.769l4.49-8.231h2.406c1.654 0 3-1.346 3-3s-1.346-3-3-3zm-23.132-2.807-.633 4.182-2.622-1.574 2.716-2.716zm-6.001 8.807h2.265l1.823 12.764-2.955 4.433-2.956-4.434zm2.398-2h-2.53l-.546-1.747 1.811-1.087 1.811 1.086zm6.735-18v-4c1.103 0 2 .897 2 2s-.897 2-2 2zm-18-2c0-1.103.897-2 2-2h.037c-.015.201-.037.401-.037.605v3.395c-1.103 0-2-.897-2-2zm2.46-4h-.46c-.503 0-.979.104-1.423.274-.265-.92-.577-2.225-.577-3.274 0-1.103.897-2 2-2h.5l1.082-1.442c1.201-1.602 3.113-2.558 5.115-2.558.747 0 1.482.129 2.185.385l6.579 2.392c1.518.552 2.539 2.009 2.539 3.625 0 .315-.039.63-.111.919l-.52 1.936c-.429-.158-.886-.257-1.369-.257h-1c-4.633 0-10.388-3.794-10.446-3.833l-.554-.369-.554.37c-1.406.937-2.434 2.289-2.986 3.832zm1.54 6v-3.395c0-1.709.755-3.309 2.047-4.393 1.562.955 5.875 3.378 9.953 3.741v4.047c0 3.309-2.691 6-6 6s-6-2.691-6-6zm6 8c.828 0 1.627-.127 2.379-.361l.514 2.055-2.893 2.892-2.892-2.892.514-2.055c.751.234 1.55.361 2.378.361zm-4.329 3.086 2.716 2.716-2.622 1.574-.633-4.182zm-9.273 16.307c-.595.991-1.683 1.607-2.839 1.607-1.213 0-2.326-.661-2.907-1.726l-4.49-8.231c-.351-.644-1.024-1.043-1.756-1.043h-2.406c-.551 0-1-.448-1-1s.449-1 1-1h4.146c.762 0 1.448.424 1.789 1.105l4.171 8.342 1.789-.895-.808-1.615.239-.656 4.855 2.427zm13.602 15.607h-9.809c.299-1.852.809-5.646.809-10 0-5.993-.998-14.043-1.008-14.124l-1.984.248c.004.033.176 1.425.375 3.449l-4.369-2.184 1.004-2.762c1.067-2.934 3.631-5.137 6.693-5.75l1.457-.291 1.067 7.039 2.19-1.314.553 1.771-2.022 14.154 5.044 7.567 5.044-7.566-2.022-14.154.553-1.771 2.19 1.314 1.067-7.039 1.457.291c3.062.613 5.626 2.815 6.693 5.75l1.004 2.762-4.369 2.184c.199-2.024.371-3.416.375-3.449l-1.984-.248c-.01.08-1.008 8.13-1.008 14.123 0 4.354.51 8.148.809 10zm28-25h-2.406c-.732 0-1.405.399-1.756 1.043l-4.49 8.231c-.581 1.065-1.694 1.726-2.907 1.726-1.156 0-2.244-.616-2.864-1.646l-1.758-2.645 4.855-2.427.239.656-.808 1.615 1.789.895 4.171-8.342c.341-.682 1.027-1.106 1.789-1.106h4.146c.551 0 1 .448 1 1s-.449 1-1 1z"/></g></svg>